<mxfile host="app.diagrams.net" modified="2020-06-02T21:07:02.999Z" agent="5.0 (X11; Linux x86_64) AppleWebKit/537.36 (KHTML, like Gecko) Ubuntu Chromium/81.0.4044.138 Chrome/81.0.4044.138 Safari/537.36" etag="krxt_HK1ugk_yAryvEVR" compressed="false" version="13.1.12" type="github">
  <diagram id="58c1vZqyCGgEaQAlMIrP" name="Page-1">
    <mxGraphModel dx="3327" dy="2078" grid="1" gridSize="10" guides="1" tooltips="1" connect="1" arrows="1" fold="1" page="1" pageScale="1" pageWidth="827" pageHeight="1169" math="0" shadow="0">
      <root>
        <mxCell id="0" />
        <mxCell id="1" parent="0" />
        <mxCell id="iwQncET-HX8Oj54IzDRB-8" value="" style="edgeStyle=orthogonalEdgeStyle;rounded=0;orthogonalLoop=1;jettySize=auto;html=1;" parent="1" source="iwQncET-HX8Oj54IzDRB-6" target="iwQncET-HX8Oj54IzDRB-7" edge="1">
          <mxGeometry relative="1" as="geometry" />
        </mxCell>
        <mxCell id="iwQncET-HX8Oj54IzDRB-10" value="" style="edgeStyle=orthogonalEdgeStyle;rounded=0;orthogonalLoop=1;jettySize=auto;html=1;" parent="1" source="iwQncET-HX8Oj54IzDRB-6" target="iwQncET-HX8Oj54IzDRB-9" edge="1">
          <mxGeometry relative="1" as="geometry" />
        </mxCell>
        <mxCell id="iwQncET-HX8Oj54IzDRB-6" value="Grey Overlay with explanations of every tool" style="rounded=1;whiteSpace=wrap;html=1;" parent="1" vertex="1">
          <mxGeometry x="650" y="-320" width="120" height="60" as="geometry" />
        </mxCell>
        <mxCell id="iwQncET-HX8Oj54IzDRB-9" value="mockup only for new tools" style="rounded=1;whiteSpace=wrap;html=1;" parent="1" vertex="1">
          <mxGeometry x="650" y="-210" width="120" height="60" as="geometry" />
        </mxCell>
        <mxCell id="iwQncET-HX8Oj54IzDRB-7" value="starts with first time use and can be dactivated -&amp;gt; witcher3" style="rounded=1;whiteSpace=wrap;html=1;" parent="1" vertex="1">
          <mxGeometry x="850" y="-320" width="120" height="60" as="geometry" />
        </mxCell>
        <mxCell id="iwQncET-HX8Oj54IzDRB-13" value="" style="edgeStyle=orthogonalEdgeStyle;rounded=0;orthogonalLoop=1;jettySize=auto;html=1;" parent="1" source="iwQncET-HX8Oj54IzDRB-11" target="iwQncET-HX8Oj54IzDRB-12" edge="1">
          <mxGeometry relative="1" as="geometry" />
        </mxCell>
        <mxCell id="iwQncET-HX8Oj54IzDRB-15" value="" style="edgeStyle=orthogonalEdgeStyle;rounded=0;orthogonalLoop=1;jettySize=auto;html=1;" parent="1" source="iwQncET-HX8Oj54IzDRB-11" target="iwQncET-HX8Oj54IzDRB-14" edge="1">
          <mxGeometry relative="1" as="geometry" />
        </mxCell>
        <mxCell id="iwQncET-HX8Oj54IzDRB-18" value="" style="edgeStyle=orthogonalEdgeStyle;rounded=0;orthogonalLoop=1;jettySize=auto;html=1;" parent="1" source="iwQncET-HX8Oj54IzDRB-11" target="iwQncET-HX8Oj54IzDRB-17" edge="1">
          <mxGeometry relative="1" as="geometry" />
        </mxCell>
        <mxCell id="BJk3pcPQKD2MwaBQS1vD-18" style="edgeStyle=orthogonalEdgeStyle;rounded=0;orthogonalLoop=1;jettySize=auto;html=1;entryX=0.5;entryY=1;entryDx=0;entryDy=0;" parent="1" source="iwQncET-HX8Oj54IzDRB-11" target="BJk3pcPQKD2MwaBQS1vD-16" edge="1">
          <mxGeometry relative="1" as="geometry" />
        </mxCell>
        <mxCell id="iwQncET-HX8Oj54IzDRB-11" value="which are the new tools?" style="rounded=1;whiteSpace=wrap;html=1;" parent="1" vertex="1">
          <mxGeometry x="1170" y="250" width="120" height="60" as="geometry" />
        </mxCell>
        <mxCell id="BJk3pcPQKD2MwaBQS1vD-16" value="icons" style="rounded=1;whiteSpace=wrap;html=1;fillColor=#d5e8d4;strokeColor=#82b366;" parent="1" vertex="1">
          <mxGeometry x="1170" y="140" width="120" height="60" as="geometry" />
        </mxCell>
        <mxCell id="BJk3pcPQKD2MwaBQS1vD-37" style="edgeStyle=orthogonalEdgeStyle;rounded=0;orthogonalLoop=1;jettySize=auto;html=1;entryX=0.5;entryY=0;entryDx=0;entryDy=0;" parent="1" source="iwQncET-HX8Oj54IzDRB-17" target="BJk3pcPQKD2MwaBQS1vD-6" edge="1">
          <mxGeometry relative="1" as="geometry">
            <Array as="points">
              <mxPoint x="1400" y="440" />
              <mxPoint x="1230" y="440" />
            </Array>
          </mxGeometry>
        </mxCell>
        <mxCell id="iwQncET-HX8Oj54IzDRB-17" value="create bounding box" style="rounded=1;whiteSpace=wrap;html=1;" parent="1" vertex="1">
          <mxGeometry x="1340" y="344" width="120" height="60" as="geometry" />
        </mxCell>
        <mxCell id="BJk3pcPQKD2MwaBQS1vD-38" style="edgeStyle=orthogonalEdgeStyle;rounded=0;orthogonalLoop=1;jettySize=auto;html=1;entryX=0.5;entryY=0;entryDx=0;entryDy=0;" parent="1" source="iwQncET-HX8Oj54IzDRB-14" target="BJk3pcPQKD2MwaBQS1vD-6" edge="1">
          <mxGeometry relative="1" as="geometry">
            <Array as="points">
              <mxPoint x="1050" y="440" />
              <mxPoint x="1230" y="440" />
            </Array>
          </mxGeometry>
        </mxCell>
        <mxCell id="iwQncET-HX8Oj54IzDRB-14" value="create plane" style="rounded=1;whiteSpace=wrap;html=1;" parent="1" vertex="1">
          <mxGeometry x="990" y="344" width="120" height="60" as="geometry" />
        </mxCell>
        <mxCell id="iwQncET-HX8Oj54IzDRB-20" value="" style="edgeStyle=orthogonalEdgeStyle;rounded=0;orthogonalLoop=1;jettySize=auto;html=1;" parent="1" source="BJk3pcPQKD2MwaBQS1vD-6" target="iwQncET-HX8Oj54IzDRB-19" edge="1">
          <mxGeometry relative="1" as="geometry" />
        </mxCell>
        <mxCell id="BJk3pcPQKD2MwaBQS1vD-36" style="edgeStyle=orthogonalEdgeStyle;rounded=0;orthogonalLoop=1;jettySize=auto;html=1;entryX=0.5;entryY=0;entryDx=0;entryDy=0;" parent="1" source="iwQncET-HX8Oj54IzDRB-12" target="BJk3pcPQKD2MwaBQS1vD-6" edge="1">
          <mxGeometry relative="1" as="geometry" />
        </mxCell>
        <mxCell id="iwQncET-HX8Oj54IzDRB-12" value="create section" style="rounded=1;whiteSpace=wrap;html=1;fillColor=#fff2cc;strokeColor=#d6b656;" parent="1" vertex="1">
          <mxGeometry x="1170" y="344" width="120" height="60" as="geometry" />
        </mxCell>
        <mxCell id="iwQncET-HX8Oj54IzDRB-22" value="" style="edgeStyle=orthogonalEdgeStyle;rounded=0;orthogonalLoop=1;jettySize=auto;html=1;" parent="1" source="iwQncET-HX8Oj54IzDRB-19" target="iwQncET-HX8Oj54IzDRB-21" edge="1">
          <mxGeometry relative="1" as="geometry" />
        </mxCell>
        <mxCell id="iwQncET-HX8Oj54IzDRB-19" value="start tool&lt;br&gt;same interface different colour&amp;nbsp;" style="rounded=1;whiteSpace=wrap;html=1;" parent="1" vertex="1">
          <mxGeometry x="1170" y="630" width="120" height="60" as="geometry" />
        </mxCell>
        <mxCell id="iwQncET-HX8Oj54IzDRB-24" value="" style="edgeStyle=orthogonalEdgeStyle;rounded=0;orthogonalLoop=1;jettySize=auto;html=1;" parent="1" source="iwQncET-HX8Oj54IzDRB-21" target="iwQncET-HX8Oj54IzDRB-23" edge="1">
          <mxGeometry relative="1" as="geometry" />
        </mxCell>
        <mxCell id="iwQncET-HX8Oj54IzDRB-26" value="" style="edgeStyle=orthogonalEdgeStyle;rounded=0;orthogonalLoop=1;jettySize=auto;html=1;" parent="1" source="iwQncET-HX8Oj54IzDRB-21" target="iwQncET-HX8Oj54IzDRB-25" edge="1">
          <mxGeometry relative="1" as="geometry" />
        </mxCell>
        <mxCell id="KPQnfZTeIEOpbJhkb1n0-2" value="" style="edgeStyle=orthogonalEdgeStyle;rounded=0;orthogonalLoop=1;jettySize=auto;html=1;startArrow=oval;startFill=1;endArrow=oval;endFill=1;strokeColor=#FFFFFF;strokeWidth=3;" parent="1" source="iwQncET-HX8Oj54IzDRB-21" edge="1">
          <mxGeometry relative="1" as="geometry">
            <mxPoint x="1090" y="770" as="targetPoint" />
          </mxGeometry>
        </mxCell>
        <mxCell id="BJk3pcPQKD2MwaBQS1vD-20" style="edgeStyle=orthogonalEdgeStyle;rounded=0;orthogonalLoop=1;jettySize=auto;html=1;entryX=1;entryY=0.5;entryDx=0;entryDy=0;" parent="1" source="iwQncET-HX8Oj54IzDRB-21" target="BJk3pcPQKD2MwaBQS1vD-19" edge="1">
          <mxGeometry relative="1" as="geometry" />
        </mxCell>
        <mxCell id="iwQncET-HX8Oj54IzDRB-21" value="goes into top down ortho-view" style="rounded=1;whiteSpace=wrap;html=1;" parent="1" vertex="1">
          <mxGeometry x="1170" y="740" width="120" height="60" as="geometry" />
        </mxCell>
        <mxCell id="iwQncET-HX8Oj54IzDRB-29" value="" style="edgeStyle=orthogonalEdgeStyle;rounded=0;orthogonalLoop=1;jettySize=auto;html=1;" parent="1" source="iwQncET-HX8Oj54IzDRB-25" target="iwQncET-HX8Oj54IzDRB-28" edge="1">
          <mxGeometry relative="1" as="geometry" />
        </mxCell>
        <mxCell id="iwQncET-HX8Oj54IzDRB-42" value="" style="edgeStyle=orthogonalEdgeStyle;rounded=0;orthogonalLoop=1;jettySize=auto;html=1;" parent="1" source="iwQncET-HX8Oj54IzDRB-25" target="iwQncET-HX8Oj54IzDRB-41" edge="1">
          <mxGeometry relative="1" as="geometry" />
        </mxCell>
        <mxCell id="iwQncET-HX8Oj54IzDRB-25" value="draw section marker" style="rounded=1;whiteSpace=wrap;html=1;" parent="1" vertex="1">
          <mxGeometry x="1170" y="1070" width="120" height="60" as="geometry" />
        </mxCell>
        <mxCell id="iwQncET-HX8Oj54IzDRB-44" value="" style="edgeStyle=orthogonalEdgeStyle;rounded=0;orthogonalLoop=1;jettySize=auto;html=1;" parent="1" source="iwQncET-HX8Oj54IzDRB-41" target="iwQncET-HX8Oj54IzDRB-43" edge="1">
          <mxGeometry relative="1" as="geometry" />
        </mxCell>
        <mxCell id="iwQncET-HX8Oj54IzDRB-41" value="section Interface" style="rounded=1;whiteSpace=wrap;html=1;" parent="1" vertex="1">
          <mxGeometry x="640" y="1070" width="120" height="60" as="geometry" />
        </mxCell>
        <mxCell id="iwQncET-HX8Oj54IzDRB-46" value="" style="edgeStyle=orthogonalEdgeStyle;rounded=0;orthogonalLoop=1;jettySize=auto;html=1;exitX=0;exitY=0.5;exitDx=0;exitDy=0;" parent="1" source="iwQncET-HX8Oj54IzDRB-51" target="iwQncET-HX8Oj54IzDRB-45" edge="1">
          <mxGeometry relative="1" as="geometry">
            <mxPoint x="700" y="1310" as="sourcePoint" />
            <Array as="points">
              <mxPoint x="610" y="1280" />
            </Array>
          </mxGeometry>
        </mxCell>
        <mxCell id="iwQncET-HX8Oj54IzDRB-47" style="edgeStyle=orthogonalEdgeStyle;rounded=0;orthogonalLoop=1;jettySize=auto;html=1;entryX=1;entryY=0.5;entryDx=0;entryDy=0;exitX=0;exitY=0.5;exitDx=0;exitDy=0;" parent="1" source="iwQncET-HX8Oj54IzDRB-51" target="iwQncET-HX8Oj54IzDRB-48" edge="1">
          <mxGeometry relative="1" as="geometry">
            <mxPoint x="530" y="1260" as="targetPoint" />
            <mxPoint x="540" y="1300" as="sourcePoint" />
          </mxGeometry>
        </mxCell>
        <mxCell id="iwQncET-HX8Oj54IzDRB-52" value="" style="edgeStyle=orthogonalEdgeStyle;rounded=0;orthogonalLoop=1;jettySize=auto;html=1;" parent="1" source="iwQncET-HX8Oj54IzDRB-43" target="iwQncET-HX8Oj54IzDRB-51" edge="1">
          <mxGeometry relative="1" as="geometry" />
        </mxCell>
        <mxCell id="iwQncET-HX8Oj54IzDRB-43" value="draw line" style="rounded=1;whiteSpace=wrap;html=1;" parent="1" vertex="1">
          <mxGeometry x="640" y="1160" width="120" height="60" as="geometry" />
        </mxCell>
        <mxCell id="iwQncET-HX8Oj54IzDRB-51" value="left click first point&lt;br&gt;second left click second point" style="rounded=1;whiteSpace=wrap;html=1;" parent="1" vertex="1">
          <mxGeometry x="640" y="1250" width="120" height="60" as="geometry" />
        </mxCell>
        <mxCell id="iwQncET-HX8Oj54IzDRB-45" value="+shift &lt;br&gt;for straight line" style="rounded=1;whiteSpace=wrap;html=1;" parent="1" vertex="1">
          <mxGeometry x="420" y="1350" width="120" height="60" as="geometry" />
        </mxCell>
        <mxCell id="iwQncET-HX8Oj54IzDRB-31" value="" style="edgeStyle=orthogonalEdgeStyle;rounded=0;orthogonalLoop=1;jettySize=auto;html=1;" parent="1" source="iwQncET-HX8Oj54IzDRB-28" target="iwQncET-HX8Oj54IzDRB-30" edge="1">
          <mxGeometry relative="1" as="geometry" />
        </mxCell>
        <mxCell id="iwQncET-HX8Oj54IzDRB-33" style="edgeStyle=orthogonalEdgeStyle;rounded=0;orthogonalLoop=1;jettySize=auto;html=1;entryX=0.5;entryY=0;entryDx=0;entryDy=0;" parent="1" source="iwQncET-HX8Oj54IzDRB-28" target="iwQncET-HX8Oj54IzDRB-32" edge="1">
          <mxGeometry relative="1" as="geometry" />
        </mxCell>
        <mxCell id="iwQncET-HX8Oj54IzDRB-28" value="correct height/width/position via z/x/y ortho view&lt;br&gt;if necessary" style="rounded=1;whiteSpace=wrap;html=1;" parent="1" vertex="1">
          <mxGeometry x="1170" y="1190" width="120" height="60" as="geometry" />
        </mxCell>
        <mxCell id="iwQncET-HX8Oj54IzDRB-35" value="" style="edgeStyle=orthogonalEdgeStyle;rounded=0;orthogonalLoop=1;jettySize=auto;html=1;" parent="1" source="iwQncET-HX8Oj54IzDRB-30" target="iwQncET-HX8Oj54IzDRB-34" edge="1">
          <mxGeometry relative="1" as="geometry" />
        </mxCell>
        <mxCell id="BJk3pcPQKD2MwaBQS1vD-4" style="edgeStyle=orthogonalEdgeStyle;rounded=0;orthogonalLoop=1;jettySize=auto;html=1;entryX=0;entryY=0.5;entryDx=0;entryDy=0;" parent="1" source="iwQncET-HX8Oj54IzDRB-30" target="iwQncET-HX8Oj54IzDRB-39" edge="1">
          <mxGeometry relative="1" as="geometry" />
        </mxCell>
        <mxCell id="iwQncET-HX8Oj54IzDRB-30" value="pre render out settings" style="rounded=1;whiteSpace=wrap;html=1;" parent="1" vertex="1">
          <mxGeometry x="1280" y="1400" width="120" height="60" as="geometry" />
        </mxCell>
        <mxCell id="iwQncET-HX8Oj54IzDRB-39" value="can be toggled" style="rounded=1;whiteSpace=wrap;html=1;" parent="1" vertex="1">
          <mxGeometry x="1450" y="1400" width="120" height="60" as="geometry" />
        </mxCell>
        <mxCell id="iwQncET-HX8Oj54IzDRB-34" value="render out menu" style="rounded=1;whiteSpace=wrap;html=1;" parent="1" vertex="1">
          <mxGeometry x="1181" y="1510" width="120" height="60" as="geometry" />
        </mxCell>
        <mxCell id="iwQncET-HX8Oj54IzDRB-27" style="edgeStyle=orthogonalEdgeStyle;rounded=0;orthogonalLoop=1;jettySize=auto;html=1;entryX=1;entryY=0.5;entryDx=0;entryDy=0;" parent="1" source="iwQncET-HX8Oj54IzDRB-23" target="iwQncET-HX8Oj54IzDRB-25" edge="1">
          <mxGeometry relative="1" as="geometry">
            <Array as="points">
              <mxPoint x="1400" y="890" />
            </Array>
          </mxGeometry>
        </mxCell>
        <mxCell id="iwQncET-HX8Oj54IzDRB-23" value="can be switched to x/y view&amp;nbsp;" style="rounded=1;whiteSpace=wrap;html=1;" parent="1" vertex="1">
          <mxGeometry x="1340" y="740" width="120" height="60" as="geometry" />
        </mxCell>
        <mxCell id="iwQncET-HX8Oj54IzDRB-38" style="edgeStyle=orthogonalEdgeStyle;rounded=0;orthogonalLoop=1;jettySize=auto;html=1;entryX=0;entryY=0.5;entryDx=0;entryDy=0;" parent="1" source="iwQncET-HX8Oj54IzDRB-32" target="iwQncET-HX8Oj54IzDRB-30" edge="1">
          <mxGeometry relative="1" as="geometry" />
        </mxCell>
        <mxCell id="iwQncET-HX8Oj54IzDRB-32" value="live preview in popUp" style="rounded=1;whiteSpace=wrap;html=1;" parent="1" vertex="1">
          <mxGeometry x="1080" y="1400" width="120" height="60" as="geometry" />
        </mxCell>
        <mxCell id="iwQncET-HX8Oj54IzDRB-54" value="" style="edgeStyle=orthogonalEdgeStyle;rounded=0;orthogonalLoop=1;jettySize=auto;html=1;" parent="1" source="iwQncET-HX8Oj54IzDRB-48" target="iwQncET-HX8Oj54IzDRB-53" edge="1">
          <mxGeometry relative="1" as="geometry" />
        </mxCell>
        <mxCell id="iwQncET-HX8Oj54IzDRB-48" value="+strg&lt;br&gt;add point" style="rounded=1;whiteSpace=wrap;html=1;" parent="1" vertex="1">
          <mxGeometry x="420" y="1250" width="120" height="60" as="geometry" />
        </mxCell>
        <mxCell id="iwQncET-HX8Oj54IzDRB-53" value="+alt&lt;br&gt;remove point" style="rounded=1;whiteSpace=wrap;html=1;" parent="1" vertex="1">
          <mxGeometry x="220" y="1250" width="120" height="60" as="geometry" />
        </mxCell>
        <mxCell id="BJk3pcPQKD2MwaBQS1vD-8" value="" style="edgeStyle=orthogonalEdgeStyle;rounded=0;orthogonalLoop=1;jettySize=auto;html=1;" parent="1" source="BJk3pcPQKD2MwaBQS1vD-6" target="BJk3pcPQKD2MwaBQS1vD-7" edge="1">
          <mxGeometry relative="1" as="geometry" />
        </mxCell>
        <mxCell id="BJk3pcPQKD2MwaBQS1vD-28" style="edgeStyle=orthogonalEdgeStyle;rounded=0;orthogonalLoop=1;jettySize=auto;html=1;entryX=1;entryY=0.5;entryDx=0;entryDy=0;" parent="1" source="BJk3pcPQKD2MwaBQS1vD-7" target="BJk3pcPQKD2MwaBQS1vD-10" edge="1">
          <mxGeometry relative="1" as="geometry" />
        </mxCell>
        <mxCell id="BJk3pcPQKD2MwaBQS1vD-29" style="edgeStyle=orthogonalEdgeStyle;rounded=0;orthogonalLoop=1;jettySize=auto;html=1;entryX=1;entryY=0.5;entryDx=0;entryDy=0;" parent="1" source="BJk3pcPQKD2MwaBQS1vD-7" target="BJk3pcPQKD2MwaBQS1vD-11" edge="1">
          <mxGeometry relative="1" as="geometry" />
        </mxCell>
        <mxCell id="BJk3pcPQKD2MwaBQS1vD-31" value="" style="edgeStyle=orthogonalEdgeStyle;rounded=0;orthogonalLoop=1;jettySize=auto;html=1;" parent="1" source="BJk3pcPQKD2MwaBQS1vD-7" target="BJk3pcPQKD2MwaBQS1vD-30" edge="1">
          <mxGeometry relative="1" as="geometry" />
        </mxCell>
        <mxCell id="BJk3pcPQKD2MwaBQS1vD-40" style="edgeStyle=orthogonalEdgeStyle;rounded=0;orthogonalLoop=1;jettySize=auto;html=1;entryX=1;entryY=0.5;entryDx=0;entryDy=0;" parent="1" source="BJk3pcPQKD2MwaBQS1vD-7" target="BJk3pcPQKD2MwaBQS1vD-39" edge="1">
          <mxGeometry relative="1" as="geometry" />
        </mxCell>
        <mxCell id="BJk3pcPQKD2MwaBQS1vD-7" value="show created layers" style="rounded=1;whiteSpace=wrap;html=1;" parent="1" vertex="1">
          <mxGeometry x="860" y="524" width="120" height="60" as="geometry" />
        </mxCell>
        <mxCell id="BJk3pcPQKD2MwaBQS1vD-33" value="" style="edgeStyle=orthogonalEdgeStyle;rounded=0;orthogonalLoop=1;jettySize=auto;html=1;" parent="1" source="BJk3pcPQKD2MwaBQS1vD-30" target="BJk3pcPQKD2MwaBQS1vD-32" edge="1">
          <mxGeometry relative="1" as="geometry" />
        </mxCell>
        <mxCell id="BJk3pcPQKD2MwaBQS1vD-30" value="how?" style="rounded=1;whiteSpace=wrap;html=1;" parent="1" vertex="1">
          <mxGeometry x="860" y="600" width="120" height="60" as="geometry" />
        </mxCell>
        <mxCell id="BJk3pcPQKD2MwaBQS1vD-35" value="" style="edgeStyle=orthogonalEdgeStyle;rounded=0;orthogonalLoop=1;jettySize=auto;html=1;" parent="1" source="BJk3pcPQKD2MwaBQS1vD-32" target="BJk3pcPQKD2MwaBQS1vD-34" edge="1">
          <mxGeometry relative="1" as="geometry" />
        </mxCell>
        <mxCell id="BJk3pcPQKD2MwaBQS1vD-32" value="Ps design as guide" style="rounded=1;whiteSpace=wrap;html=1;" parent="1" vertex="1">
          <mxGeometry x="520" y="600" width="120" height="60" as="geometry" />
        </mxCell>
        <mxCell id="BJk3pcPQKD2MwaBQS1vD-34" value="eye icon?" style="rounded=1;whiteSpace=wrap;html=1;" parent="1" vertex="1">
          <mxGeometry x="360" y="600" width="120" height="60" as="geometry" />
        </mxCell>
        <mxCell id="BJk3pcPQKD2MwaBQS1vD-49" style="edgeStyle=orthogonalEdgeStyle;rounded=0;orthogonalLoop=1;jettySize=auto;html=1;entryX=1;entryY=0.5;entryDx=0;entryDy=0;" parent="1" source="BJk3pcPQKD2MwaBQS1vD-10" target="BJk3pcPQKD2MwaBQS1vD-47" edge="1">
          <mxGeometry relative="1" as="geometry" />
        </mxCell>
        <mxCell id="BJk3pcPQKD2MwaBQS1vD-10" value="layers can be locked" style="rounded=1;whiteSpace=wrap;html=1;" parent="1" vertex="1">
          <mxGeometry x="670" y="390" width="120" height="60" as="geometry" />
        </mxCell>
        <mxCell id="BJk3pcPQKD2MwaBQS1vD-50" style="edgeStyle=orthogonalEdgeStyle;rounded=0;orthogonalLoop=1;jettySize=auto;html=1;entryX=0.5;entryY=1;entryDx=0;entryDy=0;" parent="1" source="BJk3pcPQKD2MwaBQS1vD-11" target="BJk3pcPQKD2MwaBQS1vD-47" edge="1">
          <mxGeometry relative="1" as="geometry" />
        </mxCell>
        <mxCell id="BJk3pcPQKD2MwaBQS1vD-11" value="also option to lock pointcloud" style="rounded=1;whiteSpace=wrap;html=1;" parent="1" vertex="1">
          <mxGeometry x="670" y="464" width="120" height="60" as="geometry" />
        </mxCell>
        <mxCell id="BJk3pcPQKD2MwaBQS1vD-15" value="" style="edgeStyle=orthogonalEdgeStyle;rounded=0;orthogonalLoop=1;jettySize=auto;html=1;" parent="1" source="BJk3pcPQKD2MwaBQS1vD-13" target="BJk3pcPQKD2MwaBQS1vD-14" edge="1">
          <mxGeometry relative="1" as="geometry" />
        </mxCell>
        <mxCell id="BJk3pcPQKD2MwaBQS1vD-13" value="&lt;div&gt;Section Tool&lt;/div&gt;&lt;div&gt;Settings&lt;/div&gt;&lt;div&gt;Section Setings:&lt;/div&gt;&lt;div&gt;Slect form/kind of section&lt;/div&gt;&lt;div&gt;&lt;br&gt;&lt;/div&gt;&lt;div&gt;preset for render&lt;/div&gt;&lt;div&gt;Colour/Intensity&lt;/div&gt;&lt;div&gt;Positiong/Size&lt;/div&gt;&lt;div&gt;height&lt;/div&gt;&lt;div&gt;Width&lt;/div&gt;&lt;div&gt;X/Y/Z Position&lt;/div&gt;&lt;div&gt;&lt;br&gt;&lt;/div&gt;&lt;div&gt;Export&lt;/div&gt;&lt;div&gt;Path/File Type&lt;/div&gt;" style="rounded=1;whiteSpace=wrap;html=1;" parent="1" vertex="1">
          <mxGeometry x="30" y="-450" width="220" height="340" as="geometry" />
        </mxCell>
        <mxCell id="BJk3pcPQKD2MwaBQS1vD-14" value="&lt;div&gt;create section&lt;/div&gt;" style="rounded=1;whiteSpace=wrap;html=1;" parent="1" vertex="1">
          <mxGeometry x="330" y="-320" width="220" height="80" as="geometry" />
        </mxCell>
        <mxCell id="BJk3pcPQKD2MwaBQS1vD-22" value="" style="edgeStyle=orthogonalEdgeStyle;rounded=0;orthogonalLoop=1;jettySize=auto;html=1;" parent="1" source="BJk3pcPQKD2MwaBQS1vD-19" target="BJk3pcPQKD2MwaBQS1vD-21" edge="1">
          <mxGeometry relative="1" as="geometry" />
        </mxCell>
        <mxCell id="BJk3pcPQKD2MwaBQS1vD-19" value="widget" style="rounded=1;whiteSpace=wrap;html=1;" parent="1" vertex="1">
          <mxGeometry x="960" y="740" width="120" height="60" as="geometry" />
        </mxCell>
        <mxCell id="BJk3pcPQKD2MwaBQS1vD-21" value="&lt;div&gt;Section Tool&lt;/div&gt;&lt;div&gt;Settings&lt;/div&gt;&lt;div&gt;Group&lt;/div&gt;&lt;div&gt;Toggle Vsibilty&lt;/div&gt;&lt;div&gt;Lock&lt;/div&gt;&lt;div&gt;Select&lt;/div&gt;&lt;div&gt;&lt;br&gt;&lt;/div&gt;&lt;div&gt;Section Setings:&lt;/div&gt;&lt;div&gt;Slect form/kind of section&lt;/div&gt;&lt;div&gt;&lt;br&gt;&lt;/div&gt;&lt;div&gt;preset for render&lt;/div&gt;&lt;div&gt;Colour/Intensity&lt;/div&gt;&lt;div&gt;Positiong/Size&lt;/div&gt;&lt;div&gt;height&lt;/div&gt;&lt;div&gt;Width&lt;/div&gt;&lt;div&gt;X/Y/Z Position&lt;/div&gt;&lt;div&gt;&lt;br&gt;&lt;/div&gt;&lt;div&gt;Export&lt;/div&gt;&lt;div&gt;Path/File Type&lt;/div&gt;" style="rounded=1;whiteSpace=wrap;html=1;" parent="1" vertex="1">
          <mxGeometry x="640" y="690" width="260" height="300" as="geometry" />
        </mxCell>
        <mxCell id="BJk3pcPQKD2MwaBQS1vD-6" value="layerMenu" style="rounded=1;whiteSpace=wrap;html=1;" parent="1" vertex="1">
          <mxGeometry x="1170" y="524" width="120" height="60" as="geometry" />
        </mxCell>
        <mxCell id="BJk3pcPQKD2MwaBQS1vD-48" value="" style="edgeStyle=orthogonalEdgeStyle;rounded=0;orthogonalLoop=1;jettySize=auto;html=1;" parent="1" source="BJk3pcPQKD2MwaBQS1vD-39" target="BJk3pcPQKD2MwaBQS1vD-47" edge="1">
          <mxGeometry relative="1" as="geometry" />
        </mxCell>
        <mxCell id="BJk3pcPQKD2MwaBQS1vD-39" value="layers can be Selected" style="rounded=1;whiteSpace=wrap;html=1;" parent="1" vertex="1">
          <mxGeometry x="670" y="310" width="120" height="60" as="geometry" />
        </mxCell>
        <mxCell id="BJk3pcPQKD2MwaBQS1vD-52" value="" style="edgeStyle=orthogonalEdgeStyle;rounded=0;orthogonalLoop=1;jettySize=auto;html=1;" parent="1" source="BJk3pcPQKD2MwaBQS1vD-47" target="BJk3pcPQKD2MwaBQS1vD-51" edge="1">
          <mxGeometry relative="1" as="geometry" />
        </mxCell>
        <mxCell id="BJk3pcPQKD2MwaBQS1vD-47" value="first layers have to be shown" style="rounded=1;whiteSpace=wrap;html=1;" parent="1" vertex="1">
          <mxGeometry x="490" y="390" width="120" height="60" as="geometry" />
        </mxCell>
        <mxCell id="BJk3pcPQKD2MwaBQS1vD-54" value="" style="edgeStyle=orthogonalEdgeStyle;rounded=0;orthogonalLoop=1;jettySize=auto;html=1;" parent="1" source="BJk3pcPQKD2MwaBQS1vD-51" target="BJk3pcPQKD2MwaBQS1vD-53" edge="1">
          <mxGeometry relative="1" as="geometry" />
        </mxCell>
        <mxCell id="BJk3pcPQKD2MwaBQS1vD-58" value="" style="edgeStyle=orthogonalEdgeStyle;rounded=0;orthogonalLoop=1;jettySize=auto;html=1;" parent="1" source="BJk3pcPQKD2MwaBQS1vD-51" target="BJk3pcPQKD2MwaBQS1vD-57" edge="1">
          <mxGeometry relative="1" as="geometry" />
        </mxCell>
        <mxCell id="BJk3pcPQKD2MwaBQS1vD-51" value="https://doc.qt.io/qt-5/model-view-programming.html" style="rounded=1;whiteSpace=wrap;html=1;" parent="1" vertex="1">
          <mxGeometry x="290" y="390" width="170" height="60" as="geometry" />
        </mxCell>
        <mxCell id="BJk3pcPQKD2MwaBQS1vD-60" value="" style="edgeStyle=orthogonalEdgeStyle;rounded=0;orthogonalLoop=1;jettySize=auto;html=1;" parent="1" source="BJk3pcPQKD2MwaBQS1vD-57" target="BJk3pcPQKD2MwaBQS1vD-59" edge="1">
          <mxGeometry relative="1" as="geometry" />
        </mxCell>
        <mxCell id="BJk3pcPQKD2MwaBQS1vD-66" value="" style="edgeStyle=orthogonalEdgeStyle;rounded=0;orthogonalLoop=1;jettySize=auto;html=1;" parent="1" source="BJk3pcPQKD2MwaBQS1vD-57" target="BJk3pcPQKD2MwaBQS1vD-65" edge="1">
          <mxGeometry relative="1" as="geometry" />
        </mxCell>
        <mxCell id="BJk3pcPQKD2MwaBQS1vD-68" value="" style="edgeStyle=orthogonalEdgeStyle;rounded=0;orthogonalLoop=1;jettySize=auto;html=1;" parent="1" source="BJk3pcPQKD2MwaBQS1vD-57" target="BJk3pcPQKD2MwaBQS1vD-67" edge="1">
          <mxGeometry relative="1" as="geometry" />
        </mxCell>
        <mxCell id="BJk3pcPQKD2MwaBQS1vD-57" value="Model based Item" style="rounded=1;whiteSpace=wrap;html=1;" parent="1" vertex="1">
          <mxGeometry x="40" y="390" width="170" height="60" as="geometry" />
        </mxCell>
        <mxCell id="BJk3pcPQKD2MwaBQS1vD-70" value="" style="edgeStyle=orthogonalEdgeStyle;rounded=0;orthogonalLoop=1;jettySize=auto;html=1;" parent="1" source="BJk3pcPQKD2MwaBQS1vD-67" target="BJk3pcPQKD2MwaBQS1vD-69" edge="1">
          <mxGeometry relative="1" as="geometry" />
        </mxCell>
        <mxCell id="BJk3pcPQKD2MwaBQS1vD-67" value="use code of OpenMission" style="rounded=1;whiteSpace=wrap;html=1;" parent="1" vertex="1">
          <mxGeometry x="40" y="524" width="170" height="60" as="geometry" />
        </mxCell>
        <mxCell id="BJk3pcPQKD2MwaBQS1vD-72" value="" style="edgeStyle=orthogonalEdgeStyle;rounded=0;orthogonalLoop=1;jettySize=auto;html=1;" parent="1" source="BJk3pcPQKD2MwaBQS1vD-69" target="BJk3pcPQKD2MwaBQS1vD-71" edge="1">
          <mxGeometry relative="1" as="geometry" />
        </mxCell>
        <mxCell id="BJk3pcPQKD2MwaBQS1vD-82" value="" style="edgeStyle=orthogonalEdgeStyle;rounded=0;orthogonalLoop=1;jettySize=auto;html=1;" parent="1" source="BJk3pcPQKD2MwaBQS1vD-69" target="BJk3pcPQKD2MwaBQS1vD-81" edge="1">
          <mxGeometry relative="1" as="geometry" />
        </mxCell>
        <mxCell id="BJk3pcPQKD2MwaBQS1vD-69" value="table with 3 rows?" style="rounded=1;whiteSpace=wrap;html=1;" parent="1" vertex="1">
          <mxGeometry x="40" y="630" width="170" height="60" as="geometry" />
        </mxCell>
        <mxCell id="BJk3pcPQKD2MwaBQS1vD-83" style="edgeStyle=orthogonalEdgeStyle;rounded=0;orthogonalLoop=1;jettySize=auto;html=1;entryX=0.441;entryY=1;entryDx=0;entryDy=0;entryPerimeter=0;" parent="1" source="BJk3pcPQKD2MwaBQS1vD-81" target="BJk3pcPQKD2MwaBQS1vD-75" edge="1">
          <mxGeometry relative="1" as="geometry" />
        </mxCell>
        <mxCell id="BJk3pcPQKD2MwaBQS1vD-81" value="rows&lt;br&gt;&lt;ul&gt;&lt;li style=&quot;text-align: left&quot;&gt;name&lt;/li&gt;&lt;li style=&quot;text-align: left&quot;&gt;group/folder&lt;/li&gt;&lt;li style=&quot;text-align: left&quot;&gt;preset?&lt;/li&gt;&lt;/ul&gt;" style="rounded=1;whiteSpace=wrap;html=1;fillColor=#d5e8d4;strokeColor=#82b366;" parent="1" vertex="1">
          <mxGeometry x="40" y="760" width="170" height="90" as="geometry" />
        </mxCell>
        <mxCell id="BJk3pcPQKD2MwaBQS1vD-74" value="" style="edgeStyle=orthogonalEdgeStyle;rounded=0;orthogonalLoop=1;jettySize=auto;html=1;" parent="1" source="BJk3pcPQKD2MwaBQS1vD-71" target="BJk3pcPQKD2MwaBQS1vD-73" edge="1">
          <mxGeometry relative="1" as="geometry" />
        </mxCell>
        <mxCell id="BJk3pcPQKD2MwaBQS1vD-71" value="buttons for&lt;br&gt;&lt;ul&gt;&lt;li style=&quot;text-align: left&quot;&gt;grouping&lt;/li&gt;&lt;li style=&quot;text-align: left&quot;&gt;visible&lt;/li&gt;&lt;li style=&quot;text-align: left&quot;&gt;lock&lt;/li&gt;&lt;/ul&gt;" style="rounded=1;whiteSpace=wrap;html=1;fillColor=#d5e8d4;strokeColor=#82b366;" parent="1" vertex="1">
          <mxGeometry x="-210" y="610" width="170" height="100" as="geometry" />
        </mxCell>
        <mxCell id="BJk3pcPQKD2MwaBQS1vD-76" value="" style="edgeStyle=orthogonalEdgeStyle;rounded=0;orthogonalLoop=1;jettySize=auto;html=1;" parent="1" source="BJk3pcPQKD2MwaBQS1vD-73" target="BJk3pcPQKD2MwaBQS1vD-75" edge="1">
          <mxGeometry relative="1" as="geometry" />
        </mxCell>
        <mxCell id="BJk3pcPQKD2MwaBQS1vD-73" value="How can they interact with server Info?" style="rounded=1;whiteSpace=wrap;html=1;" parent="1" vertex="1">
          <mxGeometry x="-410" y="610" width="170" height="100" as="geometry" />
        </mxCell>
        <mxCell id="BJk3pcPQKD2MwaBQS1vD-78" value="" style="edgeStyle=orthogonalEdgeStyle;rounded=0;orthogonalLoop=1;jettySize=auto;html=1;" parent="1" source="BJk3pcPQKD2MwaBQS1vD-75" target="BJk3pcPQKD2MwaBQS1vD-77" edge="1">
          <mxGeometry relative="1" as="geometry" />
        </mxCell>
        <mxCell id="BJk3pcPQKD2MwaBQS1vD-80" style="edgeStyle=orthogonalEdgeStyle;rounded=0;orthogonalLoop=1;jettySize=auto;html=1;entryX=1;entryY=0.5;entryDx=0;entryDy=0;" parent="1" source="BJk3pcPQKD2MwaBQS1vD-75" target="BJk3pcPQKD2MwaBQS1vD-79" edge="1">
          <mxGeometry relative="1" as="geometry" />
        </mxCell>
        <mxCell id="BJk3pcPQKD2MwaBQS1vD-75" value="Where is it computed?" style="rounded=1;whiteSpace=wrap;html=1;" parent="1" vertex="1">
          <mxGeometry x="-660" y="610" width="170" height="100" as="geometry" />
        </mxCell>
        <mxCell id="BJk3pcPQKD2MwaBQS1vD-77" value="Server side" style="rounded=1;whiteSpace=wrap;html=1;" parent="1" vertex="1">
          <mxGeometry x="-900" y="535" width="170" height="100" as="geometry" />
        </mxCell>
        <mxCell id="BJk3pcPQKD2MwaBQS1vD-65" value="https://www.youtube.com/watch?v=2YRAJt-LbkM" style="rounded=1;whiteSpace=wrap;html=1;" parent="1" vertex="1">
          <mxGeometry x="-210" y="390" width="220" height="60" as="geometry" />
        </mxCell>
        <mxCell id="BJk3pcPQKD2MwaBQS1vD-62" value="" style="edgeStyle=orthogonalEdgeStyle;rounded=0;orthogonalLoop=1;jettySize=auto;html=1;" parent="1" source="BJk3pcPQKD2MwaBQS1vD-59" target="BJk3pcPQKD2MwaBQS1vD-61" edge="1">
          <mxGeometry relative="1" as="geometry" />
        </mxCell>
        <mxCell id="BJk3pcPQKD2MwaBQS1vD-59" value="can be used with different types of data list/table/tree" style="rounded=1;whiteSpace=wrap;html=1;" parent="1" vertex="1">
          <mxGeometry x="40" y="300" width="170" height="60" as="geometry" />
        </mxCell>
        <mxCell id="BJk3pcPQKD2MwaBQS1vD-64" value="" style="edgeStyle=orthogonalEdgeStyle;rounded=0;orthogonalLoop=1;jettySize=auto;html=1;" parent="1" source="BJk3pcPQKD2MwaBQS1vD-61" target="BJk3pcPQKD2MwaBQS1vD-63" edge="1">
          <mxGeometry relative="1" as="geometry" />
        </mxCell>
        <mxCell id="BJk3pcPQKD2MwaBQS1vD-61" value="qmodelindex API" style="rounded=1;whiteSpace=wrap;html=1;" parent="1" vertex="1">
          <mxGeometry x="40" y="210" width="170" height="60" as="geometry" />
        </mxCell>
        <mxCell id="BJk3pcPQKD2MwaBQS1vD-63" value="https://www.youtube.com/watch?v=T0HXWcpPItk" style="rounded=1;whiteSpace=wrap;html=1;" parent="1" vertex="1">
          <mxGeometry x="25" y="100" width="200" height="60" as="geometry" />
        </mxCell>
        <mxCell id="BJk3pcPQKD2MwaBQS1vD-56" value="" style="edgeStyle=orthogonalEdgeStyle;rounded=0;orthogonalLoop=1;jettySize=auto;html=1;" parent="1" source="BJk3pcPQKD2MwaBQS1vD-53" target="BJk3pcPQKD2MwaBQS1vD-55" edge="1">
          <mxGeometry relative="1" as="geometry" />
        </mxCell>
        <mxCell id="BJk3pcPQKD2MwaBQS1vD-53" value="https://doc.qt.io/qt-5/qabstractitemmodel.html" style="rounded=1;whiteSpace=wrap;html=1;" parent="1" vertex="1">
          <mxGeometry x="290" y="284" width="170" height="60" as="geometry" />
        </mxCell>
        <mxCell id="BJk3pcPQKD2MwaBQS1vD-55" value="&lt;h1 class=&quot;title&quot;&gt;&lt;font style=&quot;font-weight: normal ; font-size: 12px&quot;&gt;QAbstractItemModel Class&lt;/font&gt;&lt;/h1&gt;" style="rounded=1;whiteSpace=wrap;html=1;" parent="1" vertex="1">
          <mxGeometry x="290" y="190" width="170" height="60" as="geometry" />
        </mxCell>
        <mxCell id="BJk3pcPQKD2MwaBQS1vD-79" value="Client side" style="rounded=1;whiteSpace=wrap;html=1;" parent="1" vertex="1">
          <mxGeometry x="-900" y="685" width="170" height="100" as="geometry" />
        </mxCell>
        <mxCell id="81sUvM16aPEegOrc4olF-3" value="" style="edgeStyle=orthogonalEdgeStyle;rounded=0;orthogonalLoop=1;jettySize=auto;html=1;" edge="1" parent="1" source="81sUvM16aPEegOrc4olF-1" target="81sUvM16aPEegOrc4olF-2">
          <mxGeometry relative="1" as="geometry" />
        </mxCell>
        <mxCell id="81sUvM16aPEegOrc4olF-1" value="Basics" style="rounded=1;whiteSpace=wrap;html=1;" vertex="1" parent="1">
          <mxGeometry x="270" y="-1040" width="120" height="60" as="geometry" />
        </mxCell>
        <mxCell id="81sUvM16aPEegOrc4olF-5" value="" style="edgeStyle=orthogonalEdgeStyle;rounded=0;orthogonalLoop=1;jettySize=auto;html=1;" edge="1" parent="1" source="81sUvM16aPEegOrc4olF-2" target="81sUvM16aPEegOrc4olF-4">
          <mxGeometry relative="1" as="geometry" />
        </mxCell>
        <mxCell id="81sUvM16aPEegOrc4olF-2" value="enums" style="rounded=1;whiteSpace=wrap;html=1;" vertex="1" parent="1">
          <mxGeometry x="270" y="-900" width="120" height="60" as="geometry" />
        </mxCell>
        <mxCell id="81sUvM16aPEegOrc4olF-7" value="" style="edgeStyle=orthogonalEdgeStyle;rounded=0;orthogonalLoop=1;jettySize=auto;html=1;" edge="1" parent="1" source="81sUvM16aPEegOrc4olF-4" target="81sUvM16aPEegOrc4olF-6">
          <mxGeometry relative="1" as="geometry" />
        </mxCell>
        <mxCell id="81sUvM16aPEegOrc4olF-4" value="to store same type of information as variables -&amp;gt; red:green:blue as int 1:2:3" style="rounded=1;whiteSpace=wrap;html=1;" vertex="1" parent="1">
          <mxGeometry x="490" y="-920" width="200" height="100" as="geometry" />
        </mxCell>
        <mxCell id="81sUvM16aPEegOrc4olF-6" value="enum Color {red, green ,blue};" style="rounded=1;whiteSpace=wrap;html=1;" vertex="1" parent="1">
          <mxGeometry x="770" y="-920" width="200" height="100" as="geometry" />
        </mxCell>
      </root>
    </mxGraphModel>
  </diagram>
</mxfile>
